<?xml version="1.0" standalone="no"?>
<!DOCTYPE svg PUBLIC "-//W3C//DTD SVG 20010904//EN"
 "http://www.w3.org/TR/2001/REC-SVG-20010904/DTD/svg10.dtd">
<svg version="1.0" xmlns="http://www.w3.org/2000/svg"
 width="128.000000pt" height="128.000000pt" viewBox="0 0 128.000000 128.000000"
 preserveAspectRatio="xMidYMid meet">
<metadata>
Created by potrace 1.14, written by Peter Selinger 2001-2017
</metadata>
<g transform="translate(0.000000,128.000000) scale(0.100000,-0.100000)"
fill="#000000" stroke="none">
<path d="M513 1103 c-43 -47 -99 -109 -124 -137 -25 -28 -90 -100 -145 -161
-54 -60 -109 -121 -122 -135 -45 -49 -82 -144 -82 -211 0 -65 30 -136 74 -177
38 -35 63 -44 316 -119 151 -45 287 -84 302 -87 31 -5 39 4 196 193 21 25 53
63 72 86 19 23 53 63 75 90 22 27 45 53 50 59 6 6 28 34 50 61 21 28 42 52 46
55 18 15 26 46 18 68 -5 13 -6 47 -3 75 5 43 3 55 -12 69 -23 19 -54 26 -72
14 -21 -13 1 22 43 69 45 50 57 78 46 108 -11 29 -38 40 -166 67 -55 11 -116
25 -135 30 -34 9 -185 41 -195 41 -2 1 -28 7 -57 15 -86 23 -89 22 -175 -73z
m190 -154 c23 -7 52 -13 64 -14 11 -2 36 -8 55 -14 18 -5 54 -15 80 -22 l47
-11 -24 -25 c-22 -25 -24 -25 -76 -12 -30 7 -56 14 -59 14 -3 0 -57 14 -122
30 l-116 29 16 23 c13 21 21 24 54 19 22 -3 58 -11 81 -17z m406 -161 c-5 -18
-9 -49 -7 -69 2 -33 -11 -52 -150 -220 -84 -101 -158 -191 -166 -199 -8 -8
-27 -31 -43 -51 l-29 -36 -242 72 c-134 40 -246 72 -250 72 -4 0 -17 14 -29
33 -39 57 -23 135 26 125 10 -2 83 -22 162 -45 79 -23 151 -44 159 -46 8 -2
50 -13 93 -24 54 -14 83 -18 96 -11 18 10 42 35 141 150 30 36 62 72 70 80 8
9 51 58 94 109 44 50 81 92 82 92 2 0 -2 -15 -7 -32z"/>
</g>
</svg>
